<mxfile host="app.diagrams.net" modified="2022-05-11T13:06:50.688Z" agent="5.0 (Windows NT 10.0; Win64; x64) AppleWebKit/537.36 (KHTML, like Gecko) Chrome/101.0.4951.54 Safari/537.36" etag="YeXraRnFYWUy21ttNh-X" version="18.0.0" type="github">
  <diagram id="E186S8RJVWjqXE9jLzbj" name="Page-1">
    <mxGraphModel dx="1822" dy="971" grid="1" gridSize="10" guides="1" tooltips="1" connect="1" arrows="1" fold="1" page="1" pageScale="1" pageWidth="827" pageHeight="1169" math="0" shadow="0">
      <root>
        <mxCell id="0" />
        <mxCell id="1" parent="0" />
        <mxCell id="3XCDnQiL7V9fduCvtsaL-52" value="Classname" style="swimlane;fontStyle=1;align=center;verticalAlign=top;childLayout=stackLayout;horizontal=1;startSize=26;horizontalStack=0;resizeParent=1;resizeParentMax=0;resizeLast=0;collapsible=1;marginBottom=0;" vertex="1" parent="1">
          <mxGeometry x="50" y="60" width="160" height="86" as="geometry" />
        </mxCell>
        <mxCell id="3XCDnQiL7V9fduCvtsaL-53" value="+ field: type" style="text;strokeColor=none;fillColor=none;align=left;verticalAlign=top;spacingLeft=4;spacingRight=4;overflow=hidden;rotatable=0;points=[[0,0.5],[1,0.5]];portConstraint=eastwest;" vertex="1" parent="3XCDnQiL7V9fduCvtsaL-52">
          <mxGeometry y="26" width="160" height="26" as="geometry" />
        </mxCell>
        <mxCell id="3XCDnQiL7V9fduCvtsaL-54" value="" style="line;strokeWidth=1;fillColor=none;align=left;verticalAlign=middle;spacingTop=-1;spacingLeft=3;spacingRight=3;rotatable=0;labelPosition=right;points=[];portConstraint=eastwest;" vertex="1" parent="3XCDnQiL7V9fduCvtsaL-52">
          <mxGeometry y="52" width="160" height="8" as="geometry" />
        </mxCell>
        <mxCell id="3XCDnQiL7V9fduCvtsaL-55" value="+ method(type): type" style="text;strokeColor=none;fillColor=none;align=left;verticalAlign=top;spacingLeft=4;spacingRight=4;overflow=hidden;rotatable=0;points=[[0,0.5],[1,0.5]];portConstraint=eastwest;" vertex="1" parent="3XCDnQiL7V9fduCvtsaL-52">
          <mxGeometry y="60" width="160" height="26" as="geometry" />
        </mxCell>
        <mxCell id="3XCDnQiL7V9fduCvtsaL-62" value="Classname" style="swimlane;fontStyle=1;align=center;verticalAlign=top;childLayout=stackLayout;horizontal=1;startSize=26;horizontalStack=0;resizeParent=1;resizeParentMax=0;resizeLast=0;collapsible=1;marginBottom=0;" vertex="1" parent="1">
          <mxGeometry x="240" y="60" width="160" height="34" as="geometry" />
        </mxCell>
        <mxCell id="3XCDnQiL7V9fduCvtsaL-64" value="" style="line;strokeWidth=1;fillColor=none;align=left;verticalAlign=middle;spacingTop=-1;spacingLeft=3;spacingRight=3;rotatable=0;labelPosition=right;points=[];portConstraint=eastwest;" vertex="1" parent="3XCDnQiL7V9fduCvtsaL-62">
          <mxGeometry y="26" width="160" height="8" as="geometry" />
        </mxCell>
        <mxCell id="3XCDnQiL7V9fduCvtsaL-70" value="&lt;mxGraphModel&gt;&lt;root&gt;&lt;mxCell id =&quot;0&quot;/&gt;&lt;mxCell id =&quot;1&quot; parent =&quot;0&quot;/&gt;&lt;mxCell id=&quot;2&quot; value=&quot;a{&quot; style=&quot;swimlane;fontStyle=1;align=center;verticalAlign=top;childLayout=stackLayout;horizontal=1;startSize=26;horizontalStack=0;resizeParent=1;resizeParentMax=0;resizeLast=0;collapsible=1;marginBottom=0;&quot;vertex=&quot;1&quot;parent=&quot;1&quot;&gt;&lt;mxGeometry x=&quot;0&quot; y=&quot;0&quot; width=&quot;250&quot; height=&quot;97&quot; as=&quot;geometry&quot; /&gt;&lt;/mxCell&gt;&lt;mxCell id=&quot;3&quot; value=&quot;-  c : int&amp;#xa;-  b : int&quot; style=&quot;text;strokeColor=none;fillColor=none;align=left;verticalAlign=top;spacingLeft=4;spacingRight=4;overflow=hidden;rotatable=0;points=[[0,0.5],[1,0.5]];portConstraint=eastwest;&quot; vertex=&quot;1&quot; parent=&quot;2&quot;&gt;&lt;mxGeometry x=&quot;0&quot; y=&quot;25&quot; width=&quot;100%&quot; height=&quot;46&quot; as=&quot;geometry&quot; /&gt;&lt;/mxCell&gt;&lt;mxCell id=&quot;4&quot; value=&quot;&quot; style=&quot;line;strokeWidth=1;fillColor=none;align=left;verticalAlign=middle;spacingTop=-1;spacingLeft=3;spacingRight=3;rotatable=0;labelPosition=right;points=[];portConstraint=eastwest;strokeWidth=1;&quot;vertex=&quot;1&quot;parent=&quot;2&quot;&gt;&lt;mxGeometry y=&quot;71&quot; width=&quot;250&quot; height=&quot;8&quot; as=&quot;geometry&quot; /&gt;&lt;/mxCell&gt;&lt;mxCell id=&quot;5&quot; value=&quot;&quot; style=&quot;text;strokeColor=none;fillColor=none;align=left;verticalAlign=top;spacingLeft=4;spacingRight=4;overflow=hidden;rotatable=0;points=[[0,0.5],[1,0.5]];portConstraint=eastwest;&quot; vertex=&quot;1&quot; parent=&quot;2&quot;&gt;&lt;mxGeometry x=&quot;0&quot; y=&quot;79&quot; width=&quot;250&quot; height=&quot;18&quot; as=&quot;geometry&quot; /&gt;&lt;/mxCell&gt;&lt;/root&gt;&lt;/mxGraphModel&gt;" style="text;whiteSpace=wrap;html=1;" vertex="1" parent="1">
          <mxGeometry x="140" y="230" width="340" height="90" as="geometry" />
        </mxCell>
      </root>
    </mxGraphModel>
  </diagram>
</mxfile>
